<svg height="512" viewBox="0 0 64 64" width="512" xmlns="http://www.w3.org/2000/svg"><g id="Filled_outline" data-name="Filled outline"><path d="m52 12a7.918 7.918 0 0 0 -2 0 11.154 11.154 0 0 0 -18-6.485 10.955 10.955 0 0 0 -7-2.515 10.788 10.788 0 0 0 -10.962 10 9.134 9.134 0 0 0 -2.038 0 9 9 0 0 0 0 18 11.726 11.726 0 0 0 4-1c1.767 2.828 4.42 5 8 5a9.974 9.974 0 0 0 8-4.018 9.974 9.974 0 0 0 8 4.018c3.92 0 7.36-2.716 9-6a9.179 9.179 0 0 0 3 1 9 9 0 0 0 0-18z" fill="#195c85"/><g fill="#87cee9"><path d="m15 43a4 4 0 0 1 -8 0c0-2.209 4-7 4-7s4 4.791 4 7z"/><path d="m36 47a4 4 0 0 1 -8 0c0-2.209 4-7 4-7s4 4.791 4 7z"/><path d="m57 43a4 4 0 0 1 -8 0c0-2.209 4-7 4-7s4 4.791 4 7z"/><path d="m25 57a4 4 0 0 1 -8 0c0-2.209 4-7 4-7s4 4.791 4 7z"/><path d="m48 57a4 4 0 0 1 -8 0c0-2.209 4-7 4-7s4 4.791 4 7z"/></g><path d="m52 11c-.226 0-1-.067-1.2-.073a12.188 12.188 0 0 0 -18.8-6.674 12.022 12.022 0 0 0 -7-2.253 11.78 11.78 0 0 0 -11.85 9.937c-.18.006-.938.063-1.15.063a10 10 0 0 0 0 20 11.5 11.5 0 0 0 3.612-.773c2.188 3.127 5.073 4.773 8.388 4.773a10.887 10.887 0 0 0 8-3.463 10.887 10.887 0 0 0 8 3.463 11.435 11.435 0 0 0 9.441-5.727l.013.006a6.082 6.082 0 0 0 2.546.721 10 10 0 0 0 0-20zm0 18a4.463 4.463 0 0 1 -1.715-.54c-.318-.145-.632-.287-.945-.4a1 1 0 0 0 -1.235.493c-1.354 2.711-4.385 5.447-8.105 5.447a8.924 8.924 0 0 1 -7.2-3.618 1 1 0 0 0 -1.6 0 8.924 8.924 0 0 1 -7.2 3.618c-3.572 0-5.861-2.463-7.152-4.53a1 1 0 0 0 -1.24-.39 10.867 10.867 0 0 1 -3.608.92 8 8 0 0 1 0-16 16.509 16.509 0 0 1 1.812-.026 1 1 0 0 0 1.224-.906 9.782 9.782 0 0 1 9.964-9.068 10.012 10.012 0 0 1 6.363 2.286 1 1 0 0 0 1.274 0 10.012 10.012 0 0 1 6.363-2.286 9.9 9.9 0 0 1 10.012 8.157 1 1 0 0 0 1.226.814 14.373 14.373 0 0 1 1.762.029 8 8 0 0 1 0 16z"/><path d="m10.232 35.359c-.707.847-4.232 5.193-4.232 7.641a5 5 0 0 0 10 0c0-2.448-3.525-6.794-4.232-7.641a1.035 1.035 0 0 0 -1.536 0zm.768 10.641a3 3 0 0 1 -3-3c0-1.073 1.57-3.529 3-5.4 1.431 1.866 3 4.322 3 5.4a3 3 0 0 1 -3 3z"/><path d="m37 47c0-2.448-3.525-6.794-4.232-7.641a1.035 1.035 0 0 0 -1.536 0c-.707.847-4.232 5.193-4.232 7.641a5 5 0 0 0 10 0zm-8 0c0-1.073 1.57-3.529 3-5.4 1.431 1.866 3 4.322 3 5.4a3 3 0 0 1 -6 0z"/><path d="m53 48a5.006 5.006 0 0 0 5-5c0-2.448-3.525-6.794-4.232-7.641a1.035 1.035 0 0 0 -1.536 0c-.707.847-4.232 5.193-4.232 7.641a5.006 5.006 0 0 0 5 5zm0-10.4c1.431 1.866 3 4.322 3 5.4a3 3 0 0 1 -6 0c0-1.073 1.57-3.529 3-5.4z"/><path d="m20.232 49.359c-.707.847-4.232 5.193-4.232 7.641a5 5 0 0 0 10 0c0-2.448-3.525-6.794-4.232-7.641a1.035 1.035 0 0 0 -1.536 0zm.768 10.641a3 3 0 0 1 -3-3c0-1.073 1.57-3.529 3-5.4 1.431 1.866 3 4.322 3 5.4a3 3 0 0 1 -3 3z"/><path d="m43.232 49.359c-.707.847-4.232 5.193-4.232 7.641a5 5 0 0 0 10 0c0-2.448-3.525-6.794-4.232-7.641a1.035 1.035 0 0 0 -1.536 0zm.768 10.641a3 3 0 0 1 -3-3c0-1.073 1.57-3.529 3-5.4 1.431 1.866 3 4.322 3 5.4a3 3 0 0 1 -3 3z"/><path d="m39 7a1 1 0 0 0 0 2 5.006 5.006 0 0 1 5 5 1 1 0 0 0 2 0 7.008 7.008 0 0 0 -7-7z"/><path d="m13 24.5a3.5 3.5 0 0 1 -3.5-3.5 1 1 0 0 0 -2 0 5.506 5.506 0 0 0 5.5 5.5 1 1 0 0 0 0-2z"/></g></svg>