<?xml version="1.0" encoding="iso-8859-1"?>
<!-- Generator: Adobe Illustrator 19.0.0, SVG Export Plug-In . SVG Version: 6.00 Build 0)  -->
<svg version="1.1" id="Capa_1" xmlns="http://www.w3.org/2000/svg" xmlns:xlink="http://www.w3.org/1999/xlink" x="0px" y="0px"
	 viewBox="0 0 512.001 512.001" style="enable-background:new 0 0 512.001 512.001;" xml:space="preserve">
<path style="fill:#91CBF2;" d="M402.323,95.982c-15.561,3.334-18.894-9.91-18.894-9.91l-0.014,0.017
	C364.444-3.918,248.727-30.697,191.867,41.428C149.492,4.793,82.642,35.274,83.608,92.084C37.372,92.452,0,130.032,0,176.355
	c0,46.551,37.737,84.288,84.289,84.288h1.228c37.818,31.422,87.998,37.813,130.339,21.701c0.105,0.04,4.758,1.856,8.918,3.286
	l0.024-0.059c66.023,22.242,134.74,11.894,189.24-24.928h13.675c46.551,0,84.288-37.737,84.288-84.288
	C512,119.447,456.608,78.799,402.323,95.982z"/>
<path style="fill:#69BDE2;" d="M187.251,142.358c0-63.368,37.786-117.908,92.054-142.325c-35.539-0.681-67.139,15.645-87.438,41.394
	C149.492,4.793,82.642,35.274,83.608,92.084C37.372,92.452,0,130.032,0,176.355c0,46.551,37.737,84.288,84.289,84.288h1.228
	c37.818,31.422,87.998,37.813,130.339,21.701c0.105,0.04,4.758,1.856,8.918,3.286l0.024-0.059
	c27.708,9.334,55.433,14.235,91.747,10.493C243.114,283.399,187.251,219.407,187.251,142.358z"/>
<path style="fill:#F6B138;" d="M241.325,506.439l17.912-109.864h-61.635c-8.188,0-13.498-10.053-9.807-18.566l61.632-153.967
	c2.231-5.872,9.281-3.242,8.608,3.211l-17.042,114.076h66.889c6.814,0,11.246,8.348,8.205,15.448l-66.858,152.018
	C247.433,514.205,240.999,512.287,241.325,506.439z"/>
<path style="fill:#F2902F;" d="M245.457,509.218l39.132-137.159c0.346-1.213-0.565-2.42-1.826-2.42h-64.571
	c-1.243,0-2.15-1.173-1.838-2.376l37.08-142.878c0.531-2.047-2.604-4.039-4.008-0.343L187.793,378.01
	c-3.691,8.512,1.621,18.566,9.807,18.566h59.401c1.171,0,2.063,1.049,1.874,2.205c-15.078,92.48-19.519,114.036-16.41,111.447
	C243.739,509.798,244.186,509.647,245.457,509.218z"/>
<path style="fill:#F6B138;" d="M396.593,482.663l10.928-67.027h-37.603c-4.995,0-8.236-6.134-5.984-11.326l37.601-93.934
	c1.361-3.582,5.662-1.978,5.251,1.959l-10.397,69.596h40.808c4.157,0,6.862,5.093,5.006,9.425l-40.788,92.745
	C400.32,487.401,396.395,486.231,396.593,482.663z"/>
<path style="fill:#F2902F;" d="M399.114,484.358l23.874-83.68c0.211-0.74-0.345-1.477-1.114-1.477h-39.393
	c-0.758,0-1.312-0.716-1.121-1.45l22.623-87.169c0.33-1.271-1.398-2.041-2.093-0.928c-0.132,0.211-0.25,0.45-0.352,0.718
	l-37.601,93.934c-2.252,5.193,0.989,11.326,5.984,11.326h36.24c0.714,0,1.258,0.64,1.144,1.345l-10.708,65.682
	c-0.043,0.769,0.107,1.425,0.379,1.95c0.074,0.144,0.189,0.264,0.319,0.361l0,0C398.066,484.712,398.339,484.62,399.114,484.358z"/>
<path style="fill:#F6B138;" d="M94.248,482.663l10.928-67.027H67.574c-4.995,0-8.236-6.134-5.984-11.326l37.601-93.934
	c1.361-3.582,5.662-1.978,5.251,1.959l-10.397,69.596h40.808c4.157,0,6.862,5.093,5.006,9.425L99.07,484.101
	C97.975,487.401,94.05,486.231,94.248,482.663z"/>
<path style="fill:#F2902F;" d="M96.769,484.358l23.874-83.68c0.211-0.74-0.345-1.477-1.114-1.477H80.135
	c-0.758,0-1.312-0.716-1.121-1.45l22.623-87.169c0.33-1.271-1.398-2.041-2.093-0.928c-0.132,0.211-0.25,0.45-0.352,0.718
	l-37.601,93.934c-2.252,5.193,0.989,11.326,5.984,11.326h36.24c0.714,0,1.258,0.64,1.144,1.345L94.25,482.66
	c-0.043,0.769,0.107,1.425,0.379,1.95c0.075,0.144,0.189,0.264,0.319,0.361l0,0C95.721,484.712,95.993,484.62,96.769,484.358z"/>
<g>
</g>
<g>
</g>
<g>
</g>
<g>
</g>
<g>
</g>
<g>
</g>
<g>
</g>
<g>
</g>
<g>
</g>
<g>
</g>
<g>
</g>
<g>
</g>
<g>
</g>
<g>
</g>
<g>
</g>
</svg>
